<!--?xml version="1.0" encoding="UTF-8"?-->
<svg preserveAspectRatio="xMidYMid meet" data-bbox="0 -29.45 2346.67 603.02" xmlns="http://www.w3.org/2000/svg" viewBox="0 0 2347 526" height="526" width="2347" data-type="ugc" role="img" aria-label="Logo Eagles Speed Marketing">
    <g>
        <path fill="#ffffff" d="m1659.68 226.71 18.73-10.16c2.3 7.36 7.17 12.32 17.21 12.32 10.04 0 12.52-3.81 12.92-7.24.65-5.46-4.18-7.62-17.07-11.3-12.77-3.68-24.97-10.03-22.95-27.05 2.04-17.15 17.69-27.05 33.05-27.05 15.36 0 25.2 6.98 30.13 20.06l-18.34 10.03c-2.29-6.35-6.02-10.29-14.14-10.29-6.35 0-9.9 3.17-10.32 6.73-.48 4.06 1.34 6.86 14.69 11.05 12.98 4.06 27.53 8.76 25.3 27.56-2.04 17.15-16.96 27.31-36.26 27.31-19.3 0-29.55-8.89-32.95-21.97Zm147.4-38.23c-2 16.89-17.2 30.48-34.72 30.48h-13.34l-3.32 27.94h-20.32l10.55-88.9h33.65c17.52 0 29.5 13.59 27.49 30.48h.01Zm-20.32 0c.77-6.48-3.21-11.43-9.44-11.43h-13.33l-2.71 22.86h13.33c6.22 0 11.38-4.95 12.15-11.43Zm81.74 38.86-2.32 19.56h-55.88l10.55-88.9h55.24l-2.32 19.56h-34.92l-1.75 14.73h31.75l-2.29 19.3h-31.75l-1.87 15.75h35.56Zm67.31 0-2.32 19.56h-55.87l10.55-88.9h55.24l-2.32 19.56h-34.92l-1.75 14.73h31.75l-2.29 19.3h-31.75l-1.87 15.75h35.56-.01Zm93.12-24.89c-2.99 25.14-23.94 44.45-48.45 44.45h-35.55l10.55-88.9h35.56c24.51 0 40.88 19.3 37.9 44.45h-.01Zm-19.56 0c1.81-15.24-6.7-24.89-20.66-24.89h-15.24l-5.91 49.78h15.24c13.97 0 24.76-9.65 26.57-24.89Zm-272.29 158.52h-20.32l6.14-51.69-27.46 37.72h-2.29l-18.51-37.72-6.14 51.69h-20.32l10.55-88.9h20.32l19.44 39.5 28.81-39.5h20.32l-10.55 88.9h.01Zm68.97-13.97h-33.02l-6.1 13.97h-22.22l40.77-88.9h25.9l19.67 88.9h-22.22l-2.79-13.97h.01Zm-3.84-19.05-6.54-32.64-14.29 32.64h20.83Zm69.9 3.81h-9.65l-3.47 29.21h-20.32l10.55-88.9h35.55c16.89 0 28.87 13.59 26.86 30.48-1.3 10.92-9.08 20.83-19.44 25.78l15.05 32.64h-21.84l-13.29-29.21Zm-7.54-17.78h15.24c5.59 0 10.75-4.95 11.52-11.43.77-6.48-3.22-11.43-8.8-11.43h-15.24l-2.71 22.86h-.01Zm100.97 46.99-23.56-41.15-4.88 41.15h-20.32l10.55-88.9h20.32l-4.58 38.61 31.75-38.61h23.11l-35.11 43.31 25.83 45.59h-23.11Zm88.93-19.56-2.32 19.56h-55.87l10.55-88.9h55.24l-2.32 19.56h-34.92l-1.75 14.73h31.75l-2.29 19.3h-31.75l-1.87 15.75h35.56-.01Zm77.02-49.78h-22.86l-8.23 69.34h-20.32l8.23-69.34h-22.86l2.32-19.56h66.03l-2.32 19.56h.01Zm31.53-19.56-10.55 88.9h-20.32l10.55-88.9h20.32Zm85.08 0-10.55 88.9h-15.24l-28.56-48.26-5.73 48.26h-20.32l10.55-88.9h15.24l28.56 48.26 5.73-48.26h20.32Zm97.66 46.99c-3.22 27.18-24.1 43.69-48.99 43.69-27.94 0-45.56-20.57-42.53-46.1 3.06-25.78 25.94-46.36 52.1-46.36 17.02 0 30.37 8.38 36.45 20.32l-18.44 9.91c-2.99-5.84-10.45-10.41-20.48-10.41-14.98 0-27.47 11.05-29.33 26.67-1.79 15.11 7.56 26.16 24.83 26.16 11.81 0 20.18-5.21 24.36-13.72h-23.74l2.11-17.78h44.57l-.9 7.62h-.01Zm-2090.04 1.51-5.27 48.63c-2.28 21.09-20.09 37.08-41.31 37.08H0L38.17 53.77c2.28-21.09 20.09-37.08 41.31-37.08h206.35l-5.27 48.63c-2.28 21.09-20.09 37.08-41.31 37.08H122.52l-6.99 64.56h140.02l-5.14 47.52c-2.28 21.09-20.09 37.08-41.31 37.08H106.37l-7.47 69.01h156.83-.01ZM589.77 128l-30.13 278.28h-84.01l2.83-26.16c-20.77 21.15-49.6 33.95-87.13 33.95-73.37 0-126.93-64-117.96-146.93 8.98-82.93 76.4-146.93 149.77-146.93 37.53 0 63.59 12.8 79.78 33.95 1.61-14.88 14.18-26.16 29.14-26.16h57.71Zm-99.08 139.14c4.52-41.74-20.65-67.9-59.3-67.9s-69.48 26.16-74 67.9c-4.52 41.74 20.65 67.9 59.3 67.9s69.48-26.16 74-67.9ZM914.62 128 886 392.36c-10.12 93.5-87.78 133.02-162.27 133.02-58.25 0-104.63-21.71-125.45-67.34l47.95-25.93c11.53-6.24 25.67-4.48 35.48 4.21 11.01 9.75 27.93 15.6 52.78 15.6 39.21 0 65.46-20.04 69.74-59.55l2.77-25.6c-20.95 22.82-49.29 36.18-85.69 36.18-79.53 0-130.79-64.56-122.48-141.36 8.32-76.8 73.56-141.37 153.09-141.37 36.41 0 61.84 13.36 77.86 36.18 1.75-16.15 15.38-28.38 31.62-28.38h53.22V128Zm-96.24 133.57c4.16-38.4-21.02-64.56-60.78-64.56-39.76 0-70.6 26.16-74.76 64.56-4.16 38.4 21.02 64.56 60.78 64.56 39.76 0 70.6-26.16 74.76-64.56ZM994.29 0h51.82l-40.52 374.28c-1.97 18.21-17.35 32.01-35.66 32.01h-51.82l40.52-374.28C960.6 13.8 975.98 0 994.29 0Zm574.04 322.8c-6.93 64-65.89 91.27-126.38 91.27-56.01 0-96.29-21.15-113.25-66.23l41.29-23.69c14.03-8.05 31.74-6.78 44.09 3.67 8.98 7.6 21.57 11.68 35.95 11.68 20.16 0 30.91-6.12 32.11-17.25 3.31-30.61-136.22-14.47-125.79-110.75 6.57-60.66 61.41-91.28 119.66-91.28 45.37 0 83.53 20.04 102.77 59.55l-75.85 38.4c-6.27-14.47-16.39-24.49-34.88-24.49-14.56 0-24.13 5.57-25.21 15.58-3.43 31.72 136.64 10.57 125.49 113.54Zm-376.5 9.52c-36.44 0-63.49-26.35-62.02-66.15 1.47-39.8 30.48-66.15 66.92-66.15 17.18 0 32.26 5.86 43.26 16.22 10.28 9.68 24.02 14.94 38.4 14.94h61.71c-13.06-65.88-69.88-113.01-140.34-113.01-82.4 0-150.94 64.47-154.03 147.99-3.09 83.53 60.67 147.99 143.07 147.99 46.75 0 89.04-20.76 117.44-53.97l-47.38-31.04c-11.22-7.35-25.69-8.65-38.28-2.91-8.68 3.95-18.41 6.08-28.75 6.08v.01Z"></path>
        <mask height="526" width="2347" y="0" x="0" maskUnits="userSpaceOnUse" style="mask-type:luminance" id="0b2e5c1d-408d-406a-b346-3dac4fdd7566_comp-ma3usudq_r_comp-lrqkw6y7" fill="none">
            <path fill="#ffffff" d="m1659.68 226.71 18.73-10.16c2.3 7.36 7.17 12.32 17.21 12.32 10.04 0 12.52-3.81 12.92-7.24.65-5.46-4.18-7.62-17.07-11.3-12.77-3.68-24.97-10.03-22.95-27.05 2.04-17.15 17.69-27.05 33.05-27.05 15.36 0 25.2 6.98 30.13 20.06l-18.34 10.03c-2.29-6.35-6.02-10.29-14.14-10.29-6.35 0-9.9 3.17-10.32 6.73-.48 4.06 1.34 6.86 14.69 11.05 12.98 4.06 27.53 8.76 25.3 27.56-2.04 17.15-16.96 27.31-36.26 27.31-19.3 0-29.55-8.89-32.95-21.97Zm147.4-38.23c-2 16.89-17.2 30.48-34.72 30.48h-13.34l-3.32 27.94h-20.32l10.55-88.9h33.65c17.52 0 29.5 13.59 27.49 30.48h.01Zm-20.32 0c.77-6.48-3.21-11.43-9.44-11.43h-13.33l-2.71 22.86h13.33c6.22 0 11.38-4.95 12.15-11.43Zm81.74 38.86-2.32 19.56h-55.88l10.55-88.9h55.24l-2.32 19.56h-34.92l-1.75 14.73h31.75l-2.29 19.3h-31.75l-1.87 15.75h35.56Zm67.31 0-2.32 19.56h-55.87l10.55-88.9h55.24l-2.32 19.56h-34.92l-1.75 14.73h31.75l-2.29 19.3h-31.75l-1.87 15.75h35.56-.01Zm93.12-24.89c-2.99 25.14-23.94 44.45-48.45 44.45h-35.55l10.55-88.9h35.56c24.51 0 40.88 19.3 37.9 44.45h-.01Zm-19.56 0c1.81-15.24-6.7-24.89-20.66-24.89h-15.24l-5.91 49.78h15.24c13.97 0 24.76-9.65 26.57-24.89Zm-272.29 158.52h-20.32l6.14-51.69-27.46 37.72h-2.29l-18.51-37.72-6.14 51.69h-20.32l10.55-88.9h20.32l19.44 39.5 28.81-39.5h20.32l-10.55 88.9h.01Zm68.97-13.97h-33.02l-6.1 13.97h-22.22l40.77-88.9h25.9l19.67 88.9h-22.22l-2.79-13.97h.01Zm-3.84-19.05-6.54-32.64-14.29 32.64h20.83Zm69.9 3.81h-9.65l-3.47 29.21h-20.32l10.55-88.9h35.55c16.89 0 28.87 13.59 26.86 30.48-1.3 10.92-9.08 20.83-19.44 25.78l15.05 32.64h-21.84l-13.29-29.21Zm-7.54-17.78h15.24c5.59 0 10.75-4.95 11.52-11.43.77-6.48-3.22-11.43-8.8-11.43h-15.24l-2.71 22.86h-.01Zm100.97 46.99-23.56-41.15-4.88 41.15h-20.32l10.55-88.9h20.32l-4.58 38.61 31.75-38.61h23.11l-35.11 43.31 25.83 45.59h-23.11Zm88.93-19.56-2.32 19.56h-55.87l10.55-88.9h55.24l-2.32 19.56h-34.92l-1.75 14.73h31.75l-2.29 19.3h-31.75l-1.87 15.75h35.56-.01Zm77.02-49.78h-22.86l-8.23 69.34h-20.32l8.23-69.34h-22.86l2.32-19.56h66.03l-2.32 19.56h.01Zm31.53-19.56-10.55 88.9h-20.32l10.55-88.9h20.32Zm85.08 0-10.55 88.9h-15.24l-28.56-48.26-5.73 48.26h-20.32l10.55-88.9h15.24l28.56 48.26 5.73-48.26h20.32Zm97.66 46.99c-3.22 27.18-24.1 43.69-48.99 43.69-27.94 0-45.56-20.57-42.53-46.1 3.06-25.78 25.94-46.36 52.1-46.36 17.02 0 30.37 8.38 36.45 20.32l-18.44 9.91c-2.99-5.84-10.45-10.41-20.48-10.41-14.98 0-27.47 11.05-29.33 26.67-1.79 15.11 7.56 26.16 24.83 26.16 11.81 0 20.18-5.21 24.36-13.72h-23.74l2.11-17.78h44.57l-.9 7.62h-.01Zm-2090.04 1.51-5.27 48.63c-2.28 21.09-20.09 37.08-41.31 37.08H0L38.17 53.77c2.28-21.09 20.09-37.08 41.31-37.08h206.35l-5.27 48.63c-2.28 21.09-20.09 37.08-41.31 37.08H122.52l-6.99 64.56h140.02l-5.14 47.52c-2.28 21.09-20.09 37.08-41.31 37.08H106.37l-7.47 69.01h156.83-.01ZM589.77 128l-30.13 278.28h-84.01l2.83-26.16c-20.77 21.15-49.6 33.95-87.13 33.95-73.37 0-126.93-64-117.96-146.93 8.98-82.93 76.4-146.93 149.77-146.93 37.53 0 63.59 12.8 79.78 33.95 1.61-14.88 14.18-26.16 29.14-26.16h57.71Zm-99.08 139.14c4.52-41.74-20.65-67.9-59.3-67.9s-69.48 26.16-74 67.9c-4.52 41.74 20.65 67.9 59.3 67.9s69.48-26.16 74-67.9ZM914.62 128 886 392.36c-10.12 93.5-87.78 133.02-162.27 133.02-58.25 0-104.63-21.71-125.45-67.34l47.95-25.93c11.53-6.24 25.67-4.48 35.48 4.21 11.01 9.75 27.93 15.6 52.78 15.6 39.21 0 65.46-20.04 69.74-59.55l2.77-25.6c-20.95 22.82-49.29 36.18-85.69 36.18-79.53 0-130.79-64.56-122.48-141.36 8.32-76.8 73.56-141.37 153.09-141.37 36.41 0 61.84 13.36 77.86 36.18 1.75-16.15 15.38-28.38 31.62-28.38h53.22V128Zm-96.24 133.57c4.16-38.4-21.02-64.56-60.78-64.56-39.76 0-70.6 26.16-74.76 64.56-4.16 38.4 21.02 64.56 60.78 64.56 39.76 0 70.6-26.16 74.76-64.56ZM994.29 0h51.82l-40.52 374.28c-1.97 18.21-17.35 32.01-35.66 32.01h-51.82l40.52-374.28C960.6 13.8 975.98 0 994.29 0Zm574.04 322.8c-6.93 64-65.89 91.27-126.38 91.27-56.01 0-96.29-21.15-113.25-66.23l41.29-23.69c14.03-8.05 31.74-6.78 44.09 3.67 8.98 7.6 21.57 11.68 35.95 11.68 20.16 0 30.91-6.12 32.11-17.25 3.31-30.61-136.22-14.47-125.79-110.75 6.57-60.66 61.41-91.28 119.66-91.28 45.37 0 83.53 20.04 102.77 59.55l-75.85 38.4c-6.27-14.47-16.39-24.49-34.88-24.49-14.56 0-24.13 5.57-25.21 15.58-3.43 31.72 136.64 10.57 125.49 113.54Zm-376.5 9.52c-36.44 0-63.49-26.35-62.02-66.15 1.47-39.8 30.48-66.15 66.92-66.15 17.18 0 32.26 5.86 43.26 16.22 10.28 9.68 24.02 14.94 38.4 14.94h61.71c-13.06-65.88-69.88-113.01-140.34-113.01-82.4 0-150.94 64.47-154.03 147.99-3.09 83.53 60.67 147.99 143.07 147.99 46.75 0 89.04-20.76 117.44-53.97l-47.38-31.04c-11.22-7.35-25.69-8.65-38.28-2.91-8.68 3.95-18.41 6.08-28.75 6.08v.01Z"></path>
        </mask>
        <g mask="url(#0b2e5c1d-408d-406a-b346-3dac4fdd7566_comp-ma3usudq_r_comp-lrqkw6y7)">
            <path fill="#ffffff" d="M0-29.45v603.02h2342.79V-29.45H0Z"></path>
            <path fill="#ffffff" d="M0-29.45v603.02h2342.79V-29.45H0Z"></path>
        </g>
        <path fill="url(#fcd31e7d-e6da-46ed-ab79-baad1b63a6e3_comp-ma3usudq_r_comp-lrqkw6y7)" d="m1192.7 242.45 145.37 5.64-141.3 41.26c-12.74 3.72-25.7-3.55-28.93-16.24-4.22-15.35 9.01-31.53 24.86-30.66Z"></path>
        <defs fill="none">
            <linearGradient gradientUnits="userSpaceOnUse" y2="266.37" x2="1338.07" y1="266.37" x1="1167.05" id="fcd31e7d-e6da-46ed-ab79-baad1b63a6e3_comp-ma3usudq_r_comp-lrqkw6y7">
                <stop stop-color="#F32121"></stop>
                <stop stop-color="#9A0404" offset="1"></stop>
            </linearGradient>
        </defs>
    </g>
</svg>